# xmcd
#
# Track frame offsets:
#	150
#	12908
#	27692
#	38355
#	51837
#	66610
#	79017
#	93693
#	108468
#	120933
#	131452
#	144241
#	156331
#	168001
#	179509
#
# Disc length: 2530 seconds
#
# Revision: 0
# Processed by: cddbd v1.5.2PL0 Copyright (c) Steve Scherf et al.
# Submitted via: audiograbber 1.83.01
#
DISCID=c409e00f
DTITLE=Zavani - Gospel Mondfluitjie
DYEAR=2004
DGENRE=Gospel
TTITLE0=Ek roem U Naam
TTITLE1=Wat 'n Vriend het ons in Jesus
TTITLE2=My enigste troos
TTITLE3=Doen slegs U wil Heer
TTITLE4=Genade onbeskryflik groot
TTITLE5=Ons is almal hier tesaam
TTITLE6=Ek weet verseker
TTITLE7=O Heer my God
TTITLE8=Nader my God by U
TTITLE9=Wees genadig Heer
TTITLE10=Die Here is my Herder
TTITLE11=Grote God aan U al die eer
TTITLE12=Praat ek mense engele tale
TTITLE13=Stille nag
TTITLE14=Gebed vir die Boesmanland
EXTD=
EXTT0=
EXTT1=
EXTT2=
EXTT3=
EXTT4=
EXTT5=
EXTT6=
EXTT7=
EXTT8=
EXTT9=
EXTT10=
EXTT11=
EXTT12=
EXTT13=
EXTT14=
PLAYORDER=
